<svg version="1.1" id="Layer_1" xmlns="http://www.w3.org/2000/svg" x="0" y="0" viewBox="0 0 1080 1080" style="enable-background:new 0 0 1080 1080" xml:space="preserve"><style>.st0{fill:#ff5900}</style><path class="st0" d="m212.7 690.4-8-171.9h21.7c1.1 49.7 4.6 131.9 3.4 148.5 6.3-18.8 49.7-105.6 69.7-148.5h21.1c1.7 38.3 5.7 128.5 5.1 147.9 7.4-20 44.5-95.9 68.5-147.9h22.3L332 690.4h-24c-1.7-37.7-5.1-120.5-4.6-142.7-9.1 25.7-48.5 103.9-67.4 142.7h-23.3zM510.7 614.5c0 33.1-18.8 78.2-66.8 78.2-30.3 0-47.4-19.4-47.4-50.8 0-34.8 21.1-79.9 66.2-79.9 28.6 1.1 48 19.4 48 52.5zm-92.5 27.4c0 20.6 9.7 33.1 28 33.1 29.7 0 42.8-35.4 42.8-61.7 0-21.1-9.1-33.7-28-33.7-28.5.6-42.8 36-42.8 62.3zM537.6 601.9c2.3-12.6 5.1-25.7 7.4-37.1h20c0 3.4-2.3 15.4-4.6 26.3 9.1-17.7 24.6-28.5 44-28.5l-4.6 21.7c-24 1.7-41.7 19.4-47.4 47.4l-12.6 58.2h-21.1l18.9-88zM597.5 690.4l38.3-181h21.1l-38.3 181h-21.1zM789.9 509.4l-30.8 146.2c-2.3 12-5.1 23.4-6.9 34.8h-20.6c0-3.4 1.7-11.4 3.4-19.4-8.6 13.1-20.6 22.3-41.1 22.3-26.8 0-40.5-20-40.5-48.5 0-37.1 21.7-81.6 65.7-81.6 21.1 0 32 11.4 34.8 19.4l15.4-72.5 20.6-.7zM675.2 641.9c0 22.3 9.7 32.5 26.3 32.5 25.7 0 38.8-23.4 44.5-50.8 5.1-26.3-2.3-42.8-26.3-42.8-29.7.6-44.5 34.2-44.5 61.1zM677.5 182.8c-25.1-25.1-60.5-38.3-103.9-38.3h-1.1c-54.8 0-101.1 20-134.2 58.2-29.8 34.4-46.3 80-46.3 128.6 0 40 12.6 74.2 36.5 98.2 24.6 24.6 60 37.7 103.3 37.7h.6c58.2 0 106.2-20.6 138.7-59.4 27.4-32.5 43.4-77.7 43.4-123.9.1-42.3-12.5-76.5-37-101.1zm-69.1 180.4c-16.6 25.7-41.1 39.4-70.2 39.4h-.6c-20 0-36-6.9-47.4-20-10.8-12.6-16.6-31.4-16.6-54.2 0-30.3 9.1-60.5 24-82.8 12-17.7 33.7-38.3 67.9-38.3h.6c41.7 0 64.5 25.7 64.5 71.9.6 30.9-8 61.8-22.2 84zM257.2 146.3h-.6c-49.1 0-76.5 17.7-94.8 36L143 268.5c16.6-36 45.1-55.4 81.6-55.4h.6c20.6 0 36.5 6.3 46.8 18.8 9.7 11.4 14.3 28 14.3 49.1 0 30.3-9.1 60.5-24 82.8-12 17.7-34.3 38.8-70.2 38.8h-.6c-22.3 0-39.4-6.9-50.2-20-9.1-10.8-13.7-26.3-13.7-44.5l-20 89.6c10.3 17.7 33.7 41.1 88.5 41.1h.6c53.7 0 98.2-21.1 130.2-61.1 28-35.4 44-83.9 44-135.9-.1-75.3-45.7-125.5-113.7-125.5zM183 18.4H57.9L43.1 87.5h45.1L7.1 459.2l78.3 1.1zM958.4 146.3c-49.7 0-77.1 17.7-95.4 36l-18.8 86.2c16.6-36 45.1-55.4 81.6-55.4h.6c20.6 0 36.5 6.3 46.8 18.8 9.7 11.4 14.3 28 14.3 49.1 0 30.3-9.1 60.5-24 82.8-12 17.7-34.3 38.8-70.2 38.8h-.6c-22.3 0-39.4-6.9-50.2-20-9.1-10.8-13.7-26.3-13.7-44.5l-20 89.6c10.3 17.7 33.7 41.1 88.5 41.1h.6c53.7 0 98.2-21.1 130.2-61.1 28-35.4 44-83.9 44-135.9-.1-75.3-45.2-125.5-113.7-125.5zM884.1 18.4H759.7l-14.9 69.1h44.6l-81.1 371.7 78.8 1.1z"/></svg>
